<?xml version="1.0" encoding="utf-8"?>
<!-- Generator: Adobe Illustrator 19.0.0, SVG Export Plug-In . SVG Version: 6.00 Build 0)  -->
<svg version="1.1" id="Layer_2" xmlns="http://www.w3.org/2000/svg" xmlns:xlink="http://www.w3.org/1999/xlink" x="0px" y="0px"
	 viewBox="0 0 408.3 103.9" style="enable-background:new 0 0 408.3 103.9;" xml:space="preserve">
<style type="text/css">
	.st0{fill:#FFFFFF;}
	.st1{fill:#B3242D;}
	.st2{fill:#919795;}
	.st3{fill:none;stroke:#919795;stroke-width:6;stroke-miterlimit:10;}
	.st4{fill:none;stroke:#919795;stroke-width:5;stroke-miterlimit:10;}
</style>
<rect id="XMLID_1_" x="154.2" y="2.1" class="st0" width="194.4" height="98"/>
<rect id="XMLID_3_" x="3.7" y="3.5" class="st1" width="150.6" height="98"/>
<g id="XMLID_2_">
	<path id="XMLID_7_" class="st0" d="M22.9,84.4V18.5h36.5v7.8H30.1v20.4h25.4v7.8H30.1v29.9H22.9z"/>
	<path id="XMLID_9_" class="st0" d="M80.5,84.4V26.3H62.7v-7.8h42.9v7.8H87.7v58.1H80.5z"/>
	<path id="XMLID_12_" class="st0" d="M105,64.7l6.4-1.1c0.2,5,1,8.5,2.3,10.3c1.4,1.9,3.3,2.8,5.7,2.8c1.7,0,3.2-0.5,4.5-1.4
		s2.2-2.1,2.6-3.6c0.6-1.9,0.9-4.9,0.9-8.9V17.5h7.2v44.9c0,8.1-1.3,13.8-4,17.1s-6.4,5-11.2,5c-4.7,0-8.2-1.5-10.5-4.5
		C106.4,76.6,105,71.5,105,64.7z"/>
</g>
<polygon id="XMLID_14_" class="st1" points="113.4,70.8 101.9,82.8 107.3,42.4 "/>
<g id="XMLID_6_">
	<path id="XMLID_5_" class="st2" d="M174,84.7v-66h19.6c4,0,7.1,0.6,9.4,1.9c2.3,1.3,4.2,3.3,5.7,6c1.5,2.7,2.2,5.7,2.2,9
		c0,3-0.6,5.8-1.9,8.2c-1.3,2.4-3.1,4.4-5.4,5.8c3,1.1,5.4,3.1,7.1,5.8c1.7,2.7,2.6,6.1,2.6,10.2c0,4-0.8,7.5-2.4,10.5
		c-1.6,3-3.7,5.2-6.3,6.6c-2.6,1.4-6.2,2-10.8,2H174z M180.8,46.4h11.3c3,0,5.1-0.2,6.3-0.6c1.8-0.6,3.2-1.7,4.1-3.2
		c1-1.5,1.5-3.5,1.5-6.1c0-2.4-0.4-4.3-1.3-5.9c-0.9-1.6-2.1-2.7-3.5-3.3c-1.5-0.6-4.1-0.9-7.9-0.9h-10.5V46.4z M180.8,76.9h13
		c2.9,0,5-0.3,6.3-0.8c2-0.8,3.5-2.1,4.5-3.8c1-1.8,1.5-4,1.5-6.7c0-2.5-0.5-4.6-1.5-6.3c-1-1.7-2.3-3-4-3.8
		c-1.7-0.8-4.3-1.2-7.8-1.2h-12.1V76.9z"/>
	<path id="XMLID_33_" class="st2" d="M237.4,84.7v-28l-20.1-38h8.4L236,38.6c2,3.9,3.8,7.7,5.3,11.2c1.5-3.5,3.4-7.3,5.7-11.7
		l10.1-19.4h8l-20.8,38v28H237.4z"/>
</g>
<circle id="XMLID_17_" class="st3" cx="304.6" cy="51.4" r="30.3"/>
<line id="XMLID_18_" class="st3" x1="310.3" y1="54.8" x2="335.6" y2="54.8"/>
<polygon id="XMLID_20_" class="st0" points="310.3,52.2 344.3,52.2 332.8,31.9 "/>
<path id="XMLID_19_" class="st4" d="M343.1,101.3H10.5c-4.4,0-8-3.6-8-8V10.5c0-4.4,3.6-8,8-8h332.6c4.4,0,8,3.6,8,8v82.8
	C351.1,97.7,347.5,101.3,343.1,101.3z"/>
<g id="XMLID_21_">
	<g id="XMLID_96_">
		<path id="XMLID_102_" class="st2" d="M388,72.8v14.3l8.4,3.7v5.4l-36.8-16.5l36.8-15.9v5.5L388,72.8z M383.1,74.9l-11.8,4.9
			l11.8,5.2V74.9z"/>
		<path id="XMLID_99_" class="st2" d="M408.3,55.7v4.9h-33.7v-4.9h2.4c-2-1.9-3-4.1-3-6.5c0-2.9,1.1-5.3,3.3-7.1
			c2.2-1.9,5-2.8,8.3-2.8c3.3,0,6,0.9,8.2,2.8c2.2,1.9,3.3,4.2,3.3,7.1c0,2.5-1,4.7-3.1,6.6H408.3z M385.6,44.2
			c-2.1,0-3.8,0.5-5.1,1.6c-1.3,1.1-2,2.5-2,4.2c0,1.8,0.6,3.2,1.9,4.3c1.3,1.1,3,1.7,5.1,1.7c2,0,3.7-0.6,5.1-1.7
			c1.3-1.1,2-2.5,2-4.3c0-1.7-0.7-3.1-2-4.2C389.2,44.7,387.6,44.2,385.6,44.2z"/>
		<path id="XMLID_97_" class="st2" d="M366.9,14.3l2.5,4.1c-1.4,0.8-2.3,1.5-2.7,2.2c-0.5,0.7-0.7,1.6-0.7,2.8
			c0,1.4,0.4,2.6,1.2,3.5c0.8,0.9,1.8,1.4,3,1.4c1.7,0,3-1.2,4.1-3.6l1.4-3.3c1.1-2.7,2.5-4.7,4.2-5.9c1.6-1.3,3.6-1.9,6-1.9
			c3.2,0,5.8,1,7.9,3.1c2.1,2.1,3.1,4.6,3.1,7.7c0,2.9-0.9,5.3-2.7,7.2c-1.8,1.9-4.3,3-7.5,3.5l-1.2-5.1c2-0.2,3.4-0.6,4.2-1.2
			c1.5-1,2.2-2.5,2.2-4.5c0-1.6-0.5-2.9-1.6-3.9c-1.1-1-2.5-1.6-4.1-1.6c-0.7,0-1.3,0.1-1.8,0.3c-0.6,0.2-1.1,0.5-1.5,0.8
			c-0.5,0.4-0.9,0.9-1.3,1.5c-0.4,0.6-0.8,1.3-1.2,2.2l-1.4,3.2c-2,4.6-4.9,6.8-8.8,6.8c-2.6,0-4.8-1-6.5-2.9
			c-1.8-1.9-2.6-4.3-2.6-7.1C361.1,19.4,363,16.4,366.9,14.3z"/>
	</g>
</g>
</svg>
