<?xml version="1.0" encoding="iso-8859-1"?><!-- Generator: Adobe Illustrator 16.0.0, SVG Export Plug-In . SVG Version: 6.00 Build 0) --><!DOCTYPE svg PUBLIC "-//W3C//DTD SVG 1.1//EN" "http://www.w3.org/Graphics/SVG/1.1/DTD/svg11.dtd"><svg version="1.1" id="Layer_1" xmlns="http://www.w3.org/2000/svg" xmlns:xlink="http://www.w3.org/1999/xlink" x="0px" y="0px" width="219.066px" height="168.779px" viewBox="0 0 219.066 168.779" style="enable-background:new 0 0 219.066 168.779;" xml:space="preserve"><path style="fill:#516094;stroke:#DCC593;stroke-width:4.2042;" d="M186.476,2.102h-31.181v14.364h-31.532V2.102H90.13v14.364H60.35	V2.102H28.818c0,0-4.904,88.289,76.027,162.914C104.845,165.016,193.659,107.733,186.476,2.102z"/><line style="fill:#FFFFFC;stroke:#DCC593;stroke-width:4.2042;" x1="42.481" y1="72.171" x2="184.725" y2="39.589"/><line style="fill:#FFFFFC;stroke:#DCC593;stroke-width:4.2042;" x1="54.394" y1="99.499" x2="177.017" y2="72.171"/><path style="fill:#FFFFFC;" d="M44.234,73.925c0,0,8.409,20.145,10.511,23.123L174.608,70.42c0,0,5.695-10.499,7.314-28.204	L44.234,73.925z"/><path style="fill:#CA2E31;stroke:#DCC593;stroke-width:4.2042;" d="M105.019,165.541c0,0-48.172,1.577-88.814-93.018	c0,0-15.415-33.634-14.013-58.159L29.52,20.67C29.52,20.67,33.898,98.974,105.019,165.541z"/><path style="fill:#CA2E31;stroke:#DCC593;stroke-width:4.2042;" d="M105.721,165.016c0,0,45.019,10.51,98.274-93.193	c0,0,13.312-25.928,12.962-59.385l-30.13,8.409C186.827,20.847,191.557,104.054,105.721,165.016z"/><path style="fill:#FFFFFC;" d="M12.089,18.656l6.306,1.577c0,0,3.416,26.276,10.773,44.669l7.226-2.496l2.365,6.701l-7.226,2.365	c0,0,15.24,45.458,52.815,81.982c0,0-38.101-27.327-57.808-79.88l-6.7,2.628l-2.759-6.701l5.781-2.233	C22.862,67.268,12.352,34.948,12.089,18.656z"/><path style="fill:#FFFFFC;" d="M183.5,61.487l6.349,2.233c0,0,8.189-16.686,9.24-44.276l6.832-1.751c0,0,0.876,28.684-8.846,48.392	l6.175,2.102l-3.021,6.175l-6.307-2.102c0,0-26.276,60.699-67.267,83.034c0,0,45.721-35.473,60.83-85.004l-6.306-1.971L183.5,61.487	z"/><path style="fill:none;stroke:#66739C;stroke-width:4.2042;" d="M130.245,58.508l12.789-2.627l0.349,0.525l-9.108,8.76	c0,0,6.7-3.285,10.379,2.627c0,0,1.708,4.861-4.073,6.657c0,0-4.73,2.102-7.183-1.402"/><path style="fill:none;stroke:#66739C;stroke-width:4.2042;" d="M115.004,79.88c0,0,7.357,0,9.811-10.51c0,0,1.402-7.183-5.43-8.409	c0,0-7.183-1.751-8.934,6.132c0,0-0.177,5.079,4.729,6.307c0,0,4.553,1.577,9.634-4.03"/><line style="fill:none;stroke:#66739C;stroke-width:4.2042;" x1="103.094" y1="81.808" x2="107.121" y2="81.105"/><line style="fill:none;stroke:#66739C;stroke-width:4.2042;" x1="81.547" y1="69.37" x2="89.779" y2="67.442"/><path style="fill:none;stroke:#66739C;stroke-width:4.2042;" d="M81.371,78.129l8.759-1.753c0,0,4.73-1.577,4.204-5.43	c0,0,0.7-4.204-5.955-3.327"/><path style="fill:none;stroke:#66739C;stroke-width:4.2042;" d="M81.547,87.063l9.459-2.102c0,0,4.904-0.702,5.604-4.906	c0,0,0-5.255-7.181-3.679"/><polyline style="fill:none;stroke:#66739C;stroke-width:4.2042;" points="77.343,70.246 81.547,69.37 81.547,87.063 77.343,87.938	"/><path style="fill:none;stroke:#DCC593;stroke-width:4.2042;" d="M16.205,72.523c0,0,82.685,212.312,187.79-0.7"/><path style="fill:none;stroke:#66739C;stroke-width:4.2042;" d="M123.938,63.94c0,0,1.753,2.977-1.051,7.706"/></svg>